<mxfile host="app.diagrams.net" modified="2021-04-13T15:50:32.483Z" agent="5.0 (Windows)" etag="rpNTLydCdCkFqBCtHKz5" version="14.5.10" type="github">
  <diagram id="aV00lB4m98laV_DwpAlv" name="Page-1">
    <mxGraphModel dx="1695" dy="479" grid="1" gridSize="10" guides="1" tooltips="1" connect="1" arrows="1" fold="1" page="1" pageScale="1" pageWidth="827" pageHeight="1169" math="0" shadow="0">
      <root>
        <mxCell id="0" />
        <mxCell id="1" parent="0" />
        <mxCell id="vRKRvqlmKyvSmNE2YDa2-1" value="/start" style="rounded=0;whiteSpace=wrap;html=1;" parent="1" vertex="1">
          <mxGeometry x="310" width="120" height="60" as="geometry" />
        </mxCell>
        <mxCell id="vRKRvqlmKyvSmNE2YDa2-3" value="" style="endArrow=classic;html=1;exitX=0.5;exitY=1;exitDx=0;exitDy=0;" parent="1" source="vRKRvqlmKyvSmNE2YDa2-1" target="vRKRvqlmKyvSmNE2YDa2-4" edge="1">
          <mxGeometry width="50" height="50" relative="1" as="geometry">
            <mxPoint x="220" y="210" as="sourcePoint" />
            <mxPoint x="240" y="80" as="targetPoint" />
          </mxGeometry>
        </mxCell>
        <mxCell id="vRKRvqlmKyvSmNE2YDa2-4" value="Привет, user_name. Я могу помочь тебе в кино мире. Напиши названия того, что ты смотрел, это поможет мне лучше узнать тебя, это займет 2 минуты. Можешь пропустить этот этап, написав Далее." style="rounded=0;whiteSpace=wrap;html=1;" parent="1" vertex="1">
          <mxGeometry x="185" y="90" width="365" height="80" as="geometry" />
        </mxCell>
        <mxCell id="vRKRvqlmKyvSmNE2YDa2-5" value="Отлично, перечисли, через точку, фильмы или мультфильмы, которые ты смотрел и они тебе понравились.(Ты в любой момент можешь пропустить этот пункт,&amp;nbsp; /skip)" style="rounded=0;whiteSpace=wrap;html=1;fillColor=#fff2cc;strokeColor=#d6b656;" parent="1" vertex="1">
          <mxGeometry x="71" y="230" width="249" height="80" as="geometry" />
        </mxCell>
        <mxCell id="vRKRvqlmKyvSmNE2YDa2-6" value="Хорошо, ты в любой момент можешь вернуться к этому пункту, написав &quot;Заполнить&quot;. Чтобы ознакомиться с полным списком моих возможностей нажми /settings" style="rounded=0;whiteSpace=wrap;html=1;" parent="1" vertex="1">
          <mxGeometry x="520" y="450" width="270" height="90" as="geometry" />
        </mxCell>
        <mxCell id="vRKRvqlmKyvSmNE2YDa2-7" value="" style="endArrow=classic;html=1;exitX=0.25;exitY=1;exitDx=0;exitDy=0;entryX=0.5;entryY=0;entryDx=0;entryDy=0;" parent="1" source="vRKRvqlmKyvSmNE2YDa2-4" target="vRKRvqlmKyvSmNE2YDa2-5" edge="1">
          <mxGeometry width="50" height="50" relative="1" as="geometry">
            <mxPoint x="220" y="180" as="sourcePoint" />
            <mxPoint x="270" y="130" as="targetPoint" />
          </mxGeometry>
        </mxCell>
        <mxCell id="vRKRvqlmKyvSmNE2YDa2-8" value="" style="endArrow=classic;html=1;exitX=0.685;exitY=1;exitDx=0;exitDy=0;exitPerimeter=0;" parent="1" source="vRKRvqlmKyvSmNE2YDa2-4" target="vRKRvqlmKyvSmNE2YDa2-6" edge="1">
          <mxGeometry width="50" height="50" relative="1" as="geometry">
            <mxPoint x="220" y="180" as="sourcePoint" />
            <mxPoint x="270" y="130" as="targetPoint" />
          </mxGeometry>
        </mxCell>
        <mxCell id="vRKRvqlmKyvSmNE2YDa2-9" value="Далее" style="text;html=1;strokeColor=none;fillColor=none;align=center;verticalAlign=middle;whiteSpace=wrap;rounded=0;" parent="1" vertex="1">
          <mxGeometry x="550" y="300" width="40" height="20" as="geometry" />
        </mxCell>
        <mxCell id="vRKRvqlmKyvSmNE2YDa2-10" value="Перечислю" style="text;html=1;strokeColor=none;fillColor=none;align=center;verticalAlign=middle;whiteSpace=wrap;rounded=0;" parent="1" vertex="1">
          <mxGeometry x="150" y="180" width="40" height="20" as="geometry" />
        </mxCell>
        <mxCell id="vRKRvqlmKyvSmNE2YDa2-12" value="" style="endArrow=classic;html=1;exitX=0.5;exitY=1;exitDx=0;exitDy=0;" parent="1" source="vRKRvqlmKyvSmNE2YDa2-5" target="vRKRvqlmKyvSmNE2YDa2-13" edge="1">
          <mxGeometry width="50" height="50" relative="1" as="geometry">
            <mxPoint x="220" y="310" as="sourcePoint" />
            <mxPoint x="130" y="330" as="targetPoint" />
          </mxGeometry>
        </mxCell>
        <mxCell id="vRKRvqlmKyvSmNE2YDa2-13" value="Теперь напиши, какие фильмы или мультфильмы не понравилсь тебе не понравились." style="rounded=0;whiteSpace=wrap;html=1;fillColor=#fff2cc;strokeColor=#d6b656;" parent="1" vertex="1">
          <mxGeometry x="108" y="360" width="175" height="70" as="geometry" />
        </mxCell>
        <mxCell id="vRKRvqlmKyvSmNE2YDa2-15" value="" style="endArrow=classic;html=1;exitX=0.5;exitY=1;exitDx=0;exitDy=0;" parent="1" source="vRKRvqlmKyvSmNE2YDa2-13" target="vRKRvqlmKyvSmNE2YDa2-16" edge="1">
          <mxGeometry width="50" height="50" relative="1" as="geometry">
            <mxPoint x="220" y="310" as="sourcePoint" />
            <mxPoint x="130" y="410" as="targetPoint" />
          </mxGeometry>
        </mxCell>
        <mxCell id="vRKRvqlmKyvSmNE2YDa2-16" value="Отлично, с фильмами закончили. Теперь приступим к сериалам. Какие сериалы или мультсериалы, которые ты смотрел и они тебе понравились?" style="rounded=0;whiteSpace=wrap;html=1;fillColor=#fff2cc;strokeColor=#d6b656;" parent="1" vertex="1">
          <mxGeometry x="103" y="480" width="185" height="90" as="geometry" />
        </mxCell>
        <mxCell id="vRKRvqlmKyvSmNE2YDa2-17" value="А какие не понравились?" style="rounded=0;whiteSpace=wrap;html=1;fillColor=#fff2cc;strokeColor=#d6b656;" parent="1" vertex="1">
          <mxGeometry x="135.5" y="600" width="120" height="60" as="geometry" />
        </mxCell>
        <mxCell id="vRKRvqlmKyvSmNE2YDa2-18" value="" style="endArrow=classic;html=1;exitX=0.5;exitY=1;exitDx=0;exitDy=0;" parent="1" source="vRKRvqlmKyvSmNE2YDa2-16" target="vRKRvqlmKyvSmNE2YDa2-17" edge="1">
          <mxGeometry width="50" height="50" relative="1" as="geometry">
            <mxPoint x="220" y="580" as="sourcePoint" />
            <mxPoint x="270" y="530" as="targetPoint" />
          </mxGeometry>
        </mxCell>
        <mxCell id="vRKRvqlmKyvSmNE2YDa2-19" value="Может ты смотрел аниме? Если да, то напиши, что тебе больше всего понравилось?" style="rounded=0;whiteSpace=wrap;html=1;fillColor=#fff2cc;strokeColor=#d6b656;" parent="1" vertex="1">
          <mxGeometry x="91.75" y="690" width="207.5" height="80" as="geometry" />
        </mxCell>
        <mxCell id="vRKRvqlmKyvSmNE2YDa2-20" value="" style="endArrow=classic;html=1;exitX=0.5;exitY=1;exitDx=0;exitDy=0;" parent="1" source="vRKRvqlmKyvSmNE2YDa2-17" target="vRKRvqlmKyvSmNE2YDa2-19" edge="1">
          <mxGeometry width="50" height="50" relative="1" as="geometry">
            <mxPoint x="240" y="700" as="sourcePoint" />
            <mxPoint x="290" y="650" as="targetPoint" />
          </mxGeometry>
        </mxCell>
        <mxCell id="Wr12T5slUzwtYqqn4j88-1" value="Мы почти на финише, а какие аниме тебе не понравились?" style="rounded=0;whiteSpace=wrap;html=1;fillColor=#fff2cc;strokeColor=#d6b656;" parent="1" vertex="1">
          <mxGeometry x="135.5" y="810" width="120" height="60" as="geometry" />
        </mxCell>
        <mxCell id="Wr12T5slUzwtYqqn4j88-2" value="" style="endArrow=classic;html=1;exitX=0.5;exitY=1;exitDx=0;exitDy=0;entryX=0.5;entryY=0;entryDx=0;entryDy=0;" parent="1" source="vRKRvqlmKyvSmNE2YDa2-19" target="Wr12T5slUzwtYqqn4j88-1" edge="1">
          <mxGeometry width="50" height="50" relative="1" as="geometry">
            <mxPoint x="390" y="710" as="sourcePoint" />
            <mxPoint x="440" y="660" as="targetPoint" />
          </mxGeometry>
        </mxCell>
        <mxCell id="Wr12T5slUzwtYqqn4j88-4" value="Начальные вопросы " style="rounded=1;whiteSpace=wrap;html=1;fillColor=#fff2cc;strokeColor=#d6b656;" parent="1" vertex="1">
          <mxGeometry x="-550" y="50" width="120" height="60" as="geometry" />
        </mxCell>
        <mxCell id="Wr12T5slUzwtYqqn4j88-5" value="Цветовые обозначения" style="text;html=1;strokeColor=none;fillColor=none;align=center;verticalAlign=middle;whiteSpace=wrap;rounded=0;" parent="1" vertex="1">
          <mxGeometry x="-520" y="20" width="40" height="20" as="geometry" />
        </mxCell>
        <mxCell id="2YeTzln--VD0P2cOwKcS-1" value="/settings&lt;br&gt;1) Дать персональную рекомендацию&lt;br&gt;2) Мне повезет&lt;br&gt;&lt;div&gt;&lt;span&gt;3) Просмотренное&amp;nbsp;&lt;/span&gt;&lt;/div&gt;&lt;div&gt;&lt;span&gt;4)Добавить что-то новое&lt;/span&gt;&lt;/div&gt;" style="rounded=0;whiteSpace=wrap;html=1;fillColor=#e1d5e7;strokeColor=#9673a6;align=left;" parent="1" vertex="1">
          <mxGeometry x="430" y="820" width="270" height="80" as="geometry" />
        </mxCell>
        <mxCell id="2YeTzln--VD0P2cOwKcS-2" value="Функции&amp;nbsp;" style="rounded=1;whiteSpace=wrap;html=1;fillColor=#e1d5e7;strokeColor=#9673a6;" parent="1" vertex="1">
          <mxGeometry x="-550" y="130" width="120" height="60" as="geometry" />
        </mxCell>
        <mxCell id="2YeTzln--VD0P2cOwKcS-3" value="" style="endArrow=classic;html=1;exitX=0.5;exitY=1;exitDx=0;exitDy=0;" parent="1" source="Wr12T5slUzwtYqqn4j88-1" target="2YeTzln--VD0P2cOwKcS-1" edge="1">
          <mxGeometry width="50" height="50" relative="1" as="geometry">
            <mxPoint x="410" y="760" as="sourcePoint" />
            <mxPoint x="470" y="870" as="targetPoint" />
          </mxGeometry>
        </mxCell>
        <mxCell id="2YeTzln--VD0P2cOwKcS-4" value="" style="endArrow=classic;html=1;exitX=0.544;exitY=0.989;exitDx=0;exitDy=0;exitPerimeter=0;entryX=0.583;entryY=0.003;entryDx=0;entryDy=0;entryPerimeter=0;" parent="1" source="vRKRvqlmKyvSmNE2YDa2-6" target="2YeTzln--VD0P2cOwKcS-1" edge="1">
          <mxGeometry width="50" height="50" relative="1" as="geometry">
            <mxPoint x="410" y="760" as="sourcePoint" />
            <mxPoint x="460" y="710" as="targetPoint" />
          </mxGeometry>
        </mxCell>
        <mxCell id="2YeTzln--VD0P2cOwKcS-5" value="Дать персональную рекомендацию" style="rounded=0;whiteSpace=wrap;html=1;fillColor=#f8cecc;strokeColor=#b85450;" parent="1" vertex="1">
          <mxGeometry x="1170" y="10" width="150" height="80" as="geometry" />
        </mxCell>
        <mxCell id="2YeTzln--VD0P2cOwKcS-6" value="" style="endArrow=classic;html=1;exitX=0.5;exitY=1;exitDx=0;exitDy=0;" parent="1" source="2YeTzln--VD0P2cOwKcS-5" target="2YeTzln--VD0P2cOwKcS-7" edge="1">
          <mxGeometry width="50" height="50" relative="1" as="geometry">
            <mxPoint x="850" y="140" as="sourcePoint" />
            <mxPoint x="1245" y="160" as="targetPoint" />
          </mxGeometry>
        </mxCell>
        <mxCell id="2YeTzln--VD0P2cOwKcS-7" value="Что ты хочешь посмотреть?( Фильм, сериал, мультфильм или аниме). Помни, что если не знаешь однозначного ответа на вопрос, то просто напиши /skip. " style="rounded=0;whiteSpace=wrap;html=1;fillColor=#f8cecc;strokeColor=#b85450;" parent="1" vertex="1">
          <mxGeometry x="1112.5" y="110" width="237.5" height="90" as="geometry" />
        </mxCell>
        <mxCell id="2YeTzln--VD0P2cOwKcS-8" value="" style="endArrow=classic;html=1;exitX=0.25;exitY=1;exitDx=0;exitDy=0;" parent="1" source="2YeTzln--VD0P2cOwKcS-7" target="2YeTzln--VD0P2cOwKcS-9" edge="1">
          <mxGeometry width="50" height="50" relative="1" as="geometry">
            <mxPoint x="850" y="210" as="sourcePoint" />
            <mxPoint x="1080" y="270" as="targetPoint" />
            <Array as="points" />
          </mxGeometry>
        </mxCell>
        <mxCell id="2YeTzln--VD0P2cOwKcS-9" value="Супер, в каком жанре ты бы хотел посмотреть?" style="rounded=0;whiteSpace=wrap;html=1;fillColor=#f8cecc;strokeColor=#b85450;" parent="1" vertex="1">
          <mxGeometry x="827" y="260" width="120" height="60" as="geometry" />
        </mxCell>
        <mxCell id="niV2gqIyMvJU-rpUqNF2-1" value="Фильм" style="text;html=1;strokeColor=none;fillColor=none;align=center;verticalAlign=middle;whiteSpace=wrap;rounded=0;" vertex="1" parent="1">
          <mxGeometry x="960" y="240" width="40" height="20" as="geometry" />
        </mxCell>
        <mxCell id="niV2gqIyMvJU-rpUqNF2-2" value="Супер, какой жанр ты бы хотел посмотреть?" style="rounded=0;whiteSpace=wrap;html=1;fillColor=#f8cecc;strokeColor=#b85450;" vertex="1" parent="1">
          <mxGeometry x="1460" y="260" width="120" height="60" as="geometry" />
        </mxCell>
        <mxCell id="niV2gqIyMvJU-rpUqNF2-3" value="" style="endArrow=classic;html=1;exitX=0.7;exitY=0.989;exitDx=0;exitDy=0;exitPerimeter=0;entryX=0.425;entryY=-0.067;entryDx=0;entryDy=0;entryPerimeter=0;" edge="1" parent="1" source="2YeTzln--VD0P2cOwKcS-7" target="niV2gqIyMvJU-rpUqNF2-2">
          <mxGeometry width="50" height="50" relative="1" as="geometry">
            <mxPoint x="1150" y="260" as="sourcePoint" />
            <mxPoint x="1200" y="210" as="targetPoint" />
          </mxGeometry>
        </mxCell>
        <mxCell id="niV2gqIyMvJU-rpUqNF2-4" value="&amp;nbsp;Сериал" style="text;html=1;strokeColor=none;fillColor=none;align=center;verticalAlign=middle;whiteSpace=wrap;rounded=0;" vertex="1" parent="1">
          <mxGeometry x="1420" y="220" width="40" height="20" as="geometry" />
        </mxCell>
        <mxCell id="niV2gqIyMvJU-rpUqNF2-6" value="Супер, в каком жанре ты бы хотел посмотреть?" style="rounded=0;whiteSpace=wrap;html=1;fillColor=#f8cecc;strokeColor=#b85450;" vertex="1" parent="1">
          <mxGeometry x="1070" y="260" width="120" height="60" as="geometry" />
        </mxCell>
        <mxCell id="niV2gqIyMvJU-rpUqNF2-7" value="Супер, в каком жанре ты бы хотел посмотреть?" style="rounded=0;whiteSpace=wrap;html=1;fillColor=#f8cecc;strokeColor=#b85450;" vertex="1" parent="1">
          <mxGeometry x="1260" y="260" width="120" height="60" as="geometry" />
        </mxCell>
        <mxCell id="niV2gqIyMvJU-rpUqNF2-9" value="" style="endArrow=classic;html=1;entryX=0.25;entryY=0;entryDx=0;entryDy=0;" edge="1" parent="1" source="2YeTzln--VD0P2cOwKcS-7" target="niV2gqIyMvJU-rpUqNF2-7">
          <mxGeometry width="50" height="50" relative="1" as="geometry">
            <mxPoint x="1240" y="230" as="sourcePoint" />
            <mxPoint x="1290" y="180" as="targetPoint" />
          </mxGeometry>
        </mxCell>
        <mxCell id="niV2gqIyMvJU-rpUqNF2-11" value="" style="endArrow=classic;html=1;exitX=0.437;exitY=1.033;exitDx=0;exitDy=0;exitPerimeter=0;entryX=0.75;entryY=0;entryDx=0;entryDy=0;startArrow=none;" edge="1" parent="1" source="niV2gqIyMvJU-rpUqNF2-13" target="niV2gqIyMvJU-rpUqNF2-6">
          <mxGeometry width="50" height="50" relative="1" as="geometry">
            <mxPoint x="1130" y="240" as="sourcePoint" />
            <mxPoint x="1180" y="190" as="targetPoint" />
          </mxGeometry>
        </mxCell>
        <mxCell id="niV2gqIyMvJU-rpUqNF2-14" value="Мультесериалы" style="text;html=1;strokeColor=none;fillColor=none;align=center;verticalAlign=middle;whiteSpace=wrap;rounded=0;" vertex="1" parent="1">
          <mxGeometry x="1300" y="220" width="40" height="20" as="geometry" />
        </mxCell>
        <mxCell id="niV2gqIyMvJU-rpUqNF2-13" value="Мультфильмы" style="text;html=1;strokeColor=none;fillColor=none;align=center;verticalAlign=middle;whiteSpace=wrap;rounded=0;" vertex="1" parent="1">
          <mxGeometry x="1160" y="220" width="40" height="20" as="geometry" />
        </mxCell>
        <mxCell id="niV2gqIyMvJU-rpUqNF2-16" value="" style="endArrow=none;html=1;exitX=0.437;exitY=1.033;exitDx=0;exitDy=0;exitPerimeter=0;entryX=0.75;entryY=0;entryDx=0;entryDy=0;" edge="1" parent="1" source="2YeTzln--VD0P2cOwKcS-7" target="niV2gqIyMvJU-rpUqNF2-13">
          <mxGeometry width="50" height="50" relative="1" as="geometry">
            <mxPoint x="1216.2875" y="202.97000000000003" as="sourcePoint" />
            <mxPoint x="1160" y="260" as="targetPoint" />
          </mxGeometry>
        </mxCell>
        <mxCell id="niV2gqIyMvJU-rpUqNF2-18" value="Супер, в каком жанре ты бы хотел посмотреть?" style="rounded=0;whiteSpace=wrap;html=1;fillColor=#f8cecc;strokeColor=#b85450;" vertex="1" parent="1">
          <mxGeometry x="1630" y="260" width="120" height="60" as="geometry" />
        </mxCell>
        <mxCell id="niV2gqIyMvJU-rpUqNF2-19" value="" style="endArrow=classic;html=1;entryX=0.375;entryY=-0.033;entryDx=0;entryDy=0;entryPerimeter=0;" edge="1" parent="1" source="2YeTzln--VD0P2cOwKcS-7" target="niV2gqIyMvJU-rpUqNF2-18">
          <mxGeometry width="50" height="50" relative="1" as="geometry">
            <mxPoint x="1390" y="240" as="sourcePoint" />
            <mxPoint x="1440" y="190" as="targetPoint" />
          </mxGeometry>
        </mxCell>
        <mxCell id="niV2gqIyMvJU-rpUqNF2-20" value="Аниме" style="text;html=1;strokeColor=none;fillColor=none;align=center;verticalAlign=middle;whiteSpace=wrap;rounded=0;" vertex="1" parent="1">
          <mxGeometry x="1530" y="200" width="40" height="20" as="geometry" />
        </mxCell>
        <mxCell id="niV2gqIyMvJU-rpUqNF2-21" value="Какая продолжительность? (1-2 час, до 1 часа...)" style="rounded=0;whiteSpace=wrap;html=1;fillColor=#f8cecc;strokeColor=#b85450;" vertex="1" parent="1">
          <mxGeometry x="940" y="390" width="150" height="70" as="geometry" />
        </mxCell>
        <mxCell id="niV2gqIyMvJU-rpUqNF2-26" value="Какое максимальное количество серий? " style="rounded=0;whiteSpace=wrap;html=1;fillColor=#f8cecc;strokeColor=#b85450;" vertex="1" parent="1">
          <mxGeometry x="1560" y="400" width="120" height="60" as="geometry" />
        </mxCell>
        <mxCell id="niV2gqIyMvJU-rpUqNF2-27" value="" style="endArrow=classic;html=1;" edge="1" parent="1" target="niV2gqIyMvJU-rpUqNF2-21">
          <mxGeometry width="50" height="50" relative="1" as="geometry">
            <mxPoint x="910" y="320" as="sourcePoint" />
            <mxPoint x="960" y="270" as="targetPoint" />
          </mxGeometry>
        </mxCell>
        <mxCell id="niV2gqIyMvJU-rpUqNF2-28" value="" style="endArrow=classic;html=1;exitX=0.583;exitY=1;exitDx=0;exitDy=0;exitPerimeter=0;entryX=0.5;entryY=0;entryDx=0;entryDy=0;" edge="1" parent="1" source="niV2gqIyMvJU-rpUqNF2-7" target="niV2gqIyMvJU-rpUqNF2-26">
          <mxGeometry width="50" height="50" relative="1" as="geometry">
            <mxPoint x="1290" y="330" as="sourcePoint" />
            <mxPoint x="1340" y="280" as="targetPoint" />
          </mxGeometry>
        </mxCell>
        <mxCell id="niV2gqIyMvJU-rpUqNF2-29" value="" style="endArrow=classic;html=1;exitX=0.5;exitY=1;exitDx=0;exitDy=0;" edge="1" parent="1" source="niV2gqIyMvJU-rpUqNF2-6" target="niV2gqIyMvJU-rpUqNF2-21">
          <mxGeometry width="50" height="50" relative="1" as="geometry">
            <mxPoint x="1290" y="330" as="sourcePoint" />
            <mxPoint x="1340" y="280" as="targetPoint" />
          </mxGeometry>
        </mxCell>
        <mxCell id="niV2gqIyMvJU-rpUqNF2-30" value="" style="endArrow=classic;html=1;exitX=0.5;exitY=1;exitDx=0;exitDy=0;entryX=0.5;entryY=0;entryDx=0;entryDy=0;" edge="1" parent="1" source="niV2gqIyMvJU-rpUqNF2-18" target="niV2gqIyMvJU-rpUqNF2-26">
          <mxGeometry width="50" height="50" relative="1" as="geometry">
            <mxPoint x="1290" y="330" as="sourcePoint" />
            <mxPoint x="1340" y="280" as="targetPoint" />
          </mxGeometry>
        </mxCell>
        <mxCell id="niV2gqIyMvJU-rpUqNF2-31" value="" style="endArrow=classic;html=1;exitX=0.608;exitY=1.033;exitDx=0;exitDy=0;exitPerimeter=0;entryX=0.5;entryY=0;entryDx=0;entryDy=0;" edge="1" parent="1" source="niV2gqIyMvJU-rpUqNF2-2" target="niV2gqIyMvJU-rpUqNF2-26">
          <mxGeometry width="50" height="50" relative="1" as="geometry">
            <mxPoint x="1290" y="330" as="sourcePoint" />
            <mxPoint x="1340" y="280" as="targetPoint" />
          </mxGeometry>
        </mxCell>
        <mxCell id="niV2gqIyMvJU-rpUqNF2-32" value="" style="endArrow=classic;html=1;exitX=0.5;exitY=1;exitDx=0;exitDy=0;entryX=0;entryY=0.5;entryDx=0;entryDy=0;" edge="1" parent="1" source="niV2gqIyMvJU-rpUqNF2-21" target="niV2gqIyMvJU-rpUqNF2-34">
          <mxGeometry width="50" height="50" relative="1" as="geometry">
            <mxPoint x="1290" y="440" as="sourcePoint" />
            <mxPoint x="1170" y="510" as="targetPoint" />
          </mxGeometry>
        </mxCell>
        <mxCell id="niV2gqIyMvJU-rpUqNF2-33" value="" style="endArrow=classic;html=1;exitX=0.4;exitY=1.033;exitDx=0;exitDy=0;exitPerimeter=0;" edge="1" parent="1" source="niV2gqIyMvJU-rpUqNF2-26" target="niV2gqIyMvJU-rpUqNF2-34">
          <mxGeometry width="50" height="50" relative="1" as="geometry">
            <mxPoint x="1290" y="440" as="sourcePoint" />
            <mxPoint x="1370" y="510" as="targetPoint" />
          </mxGeometry>
        </mxCell>
        <mxCell id="niV2gqIyMvJU-rpUqNF2-34" value="Новое или что-то аутентичное?" style="rounded=0;whiteSpace=wrap;html=1;fillColor=#f8cecc;strokeColor=#b85450;" vertex="1" parent="1">
          <mxGeometry x="1241" y="480" width="120" height="60" as="geometry" />
        </mxCell>
        <mxCell id="niV2gqIyMvJU-rpUqNF2-35" value="" style="endArrow=classic;html=1;exitX=0.5;exitY=1;exitDx=0;exitDy=0;" edge="1" parent="1" source="niV2gqIyMvJU-rpUqNF2-34" target="niV2gqIyMvJU-rpUqNF2-36">
          <mxGeometry width="50" height="50" relative="1" as="geometry">
            <mxPoint x="1290" y="500" as="sourcePoint" />
            <mxPoint x="1301" y="600" as="targetPoint" />
          </mxGeometry>
        </mxCell>
        <mxCell id="niV2gqIyMvJU-rpUqNF2-36" value="Вывод наиболее подходящего фильма из списка, также идет сравнение с тем, что смотрел пользователь" style="rounded=0;whiteSpace=wrap;html=1;fillColor=#f8cecc;strokeColor=#b85450;" vertex="1" parent="1">
          <mxGeometry x="1181.5" y="570" width="239" height="60" as="geometry" />
        </mxCell>
        <mxCell id="niV2gqIyMvJU-rpUqNF2-37" value="Персональная рекомендация" style="rounded=1;whiteSpace=wrap;html=1;fillColor=#f8cecc;strokeColor=#b85450;" vertex="1" parent="1">
          <mxGeometry x="-550" y="220" width="120" height="60" as="geometry" />
        </mxCell>
        <mxCell id="niV2gqIyMvJU-rpUqNF2-38" value="Просто человечек" style="shape=umlActor;verticalLabelPosition=bottom;verticalAlign=top;html=1;outlineConnect=0;" vertex="1" parent="1">
          <mxGeometry x="660" y="360" width="30" height="60" as="geometry" />
        </mxCell>
        <mxCell id="niV2gqIyMvJU-rpUqNF2-40" value="Мне повезет" style="rounded=0;whiteSpace=wrap;html=1;fillColor=#d5e8d4;strokeColor=#82b366;" vertex="1" parent="1">
          <mxGeometry x="1030" y="740" width="120" height="60" as="geometry" />
        </mxCell>
        <mxCell id="niV2gqIyMvJU-rpUqNF2-41" value="" style="endArrow=classic;html=1;exitX=0.5;exitY=1;exitDx=0;exitDy=0;" edge="1" parent="1" source="niV2gqIyMvJU-rpUqNF2-40" target="niV2gqIyMvJU-rpUqNF2-42">
          <mxGeometry width="50" height="50" relative="1" as="geometry">
            <mxPoint x="2090" y="110" as="sourcePoint" />
            <mxPoint x="2090" y="170" as="targetPoint" />
          </mxGeometry>
        </mxCell>
        <mxCell id="niV2gqIyMvJU-rpUqNF2-42" value="Выводится рандомна, позиция из базы данных, которое не совпадает с тем, что смотрел пользователь " style="rounded=0;whiteSpace=wrap;html=1;fillColor=#d5e8d4;strokeColor=#82b366;" vertex="1" parent="1">
          <mxGeometry x="1000" y="910" width="180" height="80" as="geometry" />
        </mxCell>
        <mxCell id="niV2gqIyMvJU-rpUqNF2-44" value="Добавить что-то новое" style="rounded=0;whiteSpace=wrap;html=1;fillColor=#b1ddf0;strokeColor=#10739e;" vertex="1" parent="1">
          <mxGeometry x="1430" y="700" width="120" height="60" as="geometry" />
        </mxCell>
        <mxCell id="niV2gqIyMvJU-rpUqNF2-45" value="" style="endArrow=classic;html=1;exitX=0.5;exitY=1;exitDx=0;exitDy=0;" edge="1" parent="1" source="niV2gqIyMvJU-rpUqNF2-44" target="niV2gqIyMvJU-rpUqNF2-46">
          <mxGeometry width="50" height="50" relative="1" as="geometry">
            <mxPoint x="1490" y="770" as="sourcePoint" />
            <mxPoint x="1490" y="800" as="targetPoint" />
          </mxGeometry>
        </mxCell>
        <mxCell id="niV2gqIyMvJU-rpUqNF2-46" value="Классно, что ты просмотрел в этот раз?(Фильм, сериал, аниме, мультфильм или мультсериал)" style="rounded=0;whiteSpace=wrap;html=1;fillColor=#b1ddf0;strokeColor=#10739e;" vertex="1" parent="1">
          <mxGeometry x="1410" y="800" width="160" height="100" as="geometry" />
        </mxCell>
        <mxCell id="niV2gqIyMvJU-rpUqNF2-48" value="" style="endArrow=classic;html=1;exitX=0.5;exitY=1;exitDx=0;exitDy=0;entryX=0.5;entryY=0;entryDx=0;entryDy=0;" edge="1" parent="1" source="niV2gqIyMvJU-rpUqNF2-46" target="niV2gqIyMvJU-rpUqNF2-49">
          <mxGeometry width="50" height="50" relative="1" as="geometry">
            <mxPoint x="1490" y="910" as="sourcePoint" />
            <mxPoint x="1490" y="950" as="targetPoint" />
          </mxGeometry>
        </mxCell>
        <mxCell id="niV2gqIyMvJU-rpUqNF2-49" value="Как называется?" style="rounded=0;whiteSpace=wrap;html=1;fillColor=#b1ddf0;strokeColor=#10739e;" vertex="1" parent="1">
          <mxGeometry x="1430" y="940" width="120" height="60" as="geometry" />
        </mxCell>
        <mxCell id="niV2gqIyMvJU-rpUqNF2-50" value="Добавить что-то новое" style="rounded=1;whiteSpace=wrap;html=1;fillColor=#b1ddf0;strokeColor=#10739e;" vertex="1" parent="1">
          <mxGeometry x="-550" y="320" width="120" height="60" as="geometry" />
        </mxCell>
        <mxCell id="niV2gqIyMvJU-rpUqNF2-51" value="&lt;span&gt;Просмотренное &lt;br&gt;&lt;/span&gt;" style="rounded=0;whiteSpace=wrap;html=1;fillColor=#ffcc99;strokeColor=#36393d;" vertex="1" parent="1">
          <mxGeometry x="1780" y="660" width="120" height="60" as="geometry" />
        </mxCell>
        <mxCell id="niV2gqIyMvJU-rpUqNF2-52" value="" style="endArrow=classic;html=1;exitX=0.5;exitY=1;exitDx=0;exitDy=0;" edge="1" parent="1" source="niV2gqIyMvJU-rpUqNF2-51" target="niV2gqIyMvJU-rpUqNF2-53">
          <mxGeometry width="50" height="50" relative="1" as="geometry">
            <mxPoint x="2030" y="700" as="sourcePoint" />
            <mxPoint x="1840" y="770" as="targetPoint" />
          </mxGeometry>
        </mxCell>
        <mxCell id="niV2gqIyMvJU-rpUqNF2-53" value="&lt;div align=&quot;center&quot;&gt;Выводим все по типу:&lt;br&gt;&lt;/div&gt;&lt;div align=&quot;left&quot;&gt;Аниме:&lt;/div&gt;&lt;div align=&quot;left&quot;&gt;Наруто&lt;br&gt;Сериалы:&lt;/div&gt;&lt;div align=&quot;left&quot;&gt;Дневники вампиров&lt;/div&gt;&lt;div align=&quot;left&quot;&gt;фильмы:&lt;/div&gt;&lt;div align=&quot;left&quot;&gt;Шрек&lt;br&gt;&lt;/div&gt;&lt;div align=&quot;left&quot;&gt;&lt;br&gt;&lt;/div&gt;" style="rounded=0;whiteSpace=wrap;html=1;fillColor=#ffcc99;strokeColor=#36393d;align=left;" vertex="1" parent="1">
          <mxGeometry x="1770" y="760" width="150" height="140" as="geometry" />
        </mxCell>
      </root>
    </mxGraphModel>
  </diagram>
</mxfile>
